<?xml version="1.0" standalone="no"?>
<!DOCTYPE svg PUBLIC "-//W3C//DTD SVG 20010904//EN"
 "http://www.w3.org/TR/2001/REC-SVG-20010904/DTD/svg10.dtd">
<svg version="1.0" xmlns="http://www.w3.org/2000/svg"
 width="700.000000pt" height="700.000000pt" viewBox="0 0 700.000000 700.000000"
 preserveAspectRatio="xMidYMid meet">
<metadata>
Created by potrace 1.11, written by Peter Selinger 2001-2013
</metadata>
<g transform="translate(0.000000,700.000000) scale(0.100000,-0.100000)"
fill="#000000" stroke="none">
<path d="M350 3500 l0 -3150 3150 0 3150 0 0 3150 0 3150 -3150 0 -3150 0 0
-3150z m5904 10 c0 -1510 -2 -2750 -3 -2755 -1 -7 -866 -11 -2753 -10 l-2753
0 -1 2750 c0 1513 0 2752 2 2755 1 3 1242 6 2756 6 l2754 0 -2 -2746z"/>
<path d="M2088 4615 c-2 -2 -22 -5 -45 -8 -125 -18 -282 -125 -378 -260 l-20
-27 1 125 0 125 -128 0 c-115 0 -128 -2 -129 -17 0 -10 -1 -406 -2 -881 l-2
-862 143 0 142 0 1 568 c0 312 2 587 5 612 21 166 147 322 297 367 110 33 256
10 326 -51 27 -24 85 -106 75 -106 -3 0 -2 -6 4 -12 12 -15 24 -68 28 -123 1
-22 3 -313 3 -647 l1 -608 140 0 140 0 1 568 c0 312 2 582 5 601 23 182 147
336 307 380 97 28 219 12 292 -38 70 -47 122 -143 130 -241 2 -19 4 -313 4
-652 l1 -618 140 0 140 0 0 708 c-1 654 -2 712 -19 773 -26 92 -56 145 -112
200 -95 92 -218 129 -414 124 -190 -4 -304 -54 -437 -191 -35 -35 -65 -64 -68
-64 -3 0 -17 20 -33 44 -65 103 -191 186 -313 206 -51 9 -218 12 -226 5z"/>
<path d="M4646 4604 c-221 -48 -409 -218 -505 -458 -66 -165 -86 -283 -85
-501 0 -198 28 -337 95 -483 124 -271 380 -437 656 -426 188 7 328 88 476 274
l28 35 -5 -145 c-4 -142 -7 -165 -26 -263 -12 -60 -59 -153 -96 -191 -103
-104 -287 -151 -477 -123 -155 24 -270 113 -301 233 l-12 49 -143 3 -143 3 6
-38 c10 -70 16 -91 36 -138 60 -140 178 -248 331 -303 232 -84 538 -69 754 38
110 55 169 112 248 242 23 37 74 193 83 253 4 28 8 55 9 60 15 73 19 259 20
988 l2 858 -130 -3 -130 -3 1 -125 1 -125 -22 30 c-94 130 -232 227 -372 262
-51 12 -234 10 -299 -3z m320 -263 c129 -41 229 -143 283 -289 44 -118 58
-221 56 -395 -2 -89 -5 -173 -9 -187 -3 -14 -9 -41 -12 -60 -15 -88 -76 -215
-136 -281 -130 -143 -344 -177 -526 -85 -122 62 -231 234 -257 406 -4 25 -9
56 -11 70 -2 14 -5 66 -7 115 -12 367 116 629 346 705 68 23 204 23 273 1z"/>
</g>
</svg>
