<?xml version="1.0" standalone="no"?>
<!DOCTYPE svg PUBLIC "-//W3C//DTD SVG 20010904//EN"
 "http://www.w3.org/TR/2001/REC-SVG-20010904/DTD/svg10.dtd">
<svg version="1.0" xmlns="http://www.w3.org/2000/svg"
 width="700.000000pt" height="700.000000pt" viewBox="0 0 700.000000 700.000000"
 preserveAspectRatio="xMidYMid meet">
<metadata>
Created by potrace 1.11, written by Peter Selinger 2001-2013
</metadata>
<g transform="translate(0.000000,700.000000) scale(0.100000,-0.100000)"
fill="#000000" stroke="none">
<path d="M700 3500 l0 -2800 2800 0 2800 0 0 2800 0 2800 -2800 0 -2800 0 0
-2800z m5250 0 l0 -2450 -2450 0 -2450 0 0 2450 0 2450 2450 0 2450 0 0 -2450z"/>
<path d="M2237 4408 c-119 -16 -204 -57 -288 -142 -32 -33 -61 -68 -65 -78
-13 -43 -21 -11 -20 85 l1 102 -120 3 -120 3 1 -708 c1 -389 2 -713 3 -718 1
-14 231 -14 232 0 0 5 2 215 3 465 l3 455 26 73 c41 114 101 182 202 229 52
24 72 27 150 27 107 0 128 -5 180 -42 55 -38 89 -92 110 -176 17 -64 19 -117
19 -553 1 -266 3 -484 6 -484 3 -1 56 -2 118 -3 l112 -2 0 101 c0 55 2 264 4
465 3 338 4 370 24 428 42 130 130 220 249 255 64 19 174 19 231 -1 95 -32
165 -140 180 -276 3 -34 6 -265 6 -513 1 -296 4 -453 11 -454 52 -6 218 -3
222 4 8 13 6 902 -2 979 -32 308 -198 482 -460 481 -195 0 -339 -74 -452 -232
-52 -72 -53 -73 -63 -46 -5 14 -10 29 -10 32 0 2 -18 31 -41 63 -101 145 -253
205 -452 178z"/>
<path d="M4605 4412 c-206 -22 -386 -181 -467 -412 -10 -30 -21 -70 -24 -89
-3 -18 -8 -43 -11 -55 -2 -11 -6 -77 -8 -146 -7 -269 56 -461 200 -605 72 -72
137 -113 216 -136 60 -18 70 -19 179 -20 185 -1 315 64 429 216 l22 30 -5
-128 c-3 -71 -8 -132 -10 -136 -3 -4 -7 -20 -10 -34 -17 -96 -101 -207 -190
-250 -162 -80 -422 -65 -618 34 -21 11 -39 18 -39 17 -1 -2 -3 -53 -3 -115
l-2 -112 61 -17 c186 -54 476 -68 614 -30 256 70 395 250 427 552 7 71 13
1369 6 1392 -3 9 -36 12 -118 12 l-114 0 -1 -32 c0 -18 0 -66 0 -106 l1 -74
-39 49 c-72 91 -173 162 -253 177 -13 2 -39 7 -59 11 -42 8 -141 12 -184 7z
m278 -222 c125 -47 222 -191 245 -365 12 -94 6 -287 -13 -355 -53 -203 -177
-317 -353 -325 -168 -7 -290 63 -362 208 -34 70 -38 83 -54 187 -27 171 -4
357 61 483 46 92 152 172 241 184 20 3 39 7 40 8 12 11 146 -7 195 -25z"/>
</g>
</svg>
